<svg xmlns="http://www.w3.org/2000/svg" version="1.1" xmlns:xlink="http://www.w3.org/1999/xlink" width="512" height="512" x="0" y="0" viewBox="0 0 512 512" style="enable-background:new 0 0 512 512" xml:space="preserve" class=""><g><path d="M20.98 420.245V91.755c0-42.083 32.858-76.823 74.873-79.21C140.287 10.02 198.934 7.5 256 7.5s115.713 2.52 160.147 5.045c42.015 2.387 74.873 37.127 74.873 79.21v328.489c0 42.083-32.858 76.823-74.873 79.21C371.713 501.98 313.066 504.5 256 504.5s-115.713-2.52-160.147-5.045c-42.015-2.387-74.873-37.127-74.873-79.21z" style="" fill="#eeecff" data-original="#eeecff" class=""></path><path d="M256 7.5c-57.066 0-115.713 2.52-160.147 5.045-42.015 2.387-74.873 37.127-74.873 79.21v328.489c0 42.083 32.858 76.823 74.873 79.21C140.287 501.98 198.934 504.5 256 504.5c13.474 0 27.036-.142 40.478-.39-89.189-66.783-70.573-240.987-37.679-313.797V67.584c-13.445-11.881-14.637-43.53 1.21-60.078-1.337-.003-2.674-.006-4.009-.006z" style="" fill="#d3d3ff" data-original="#d3d3ff" class=""></path><path d="M141.217 324.129H93.546c-14.055 0-25.449-11.394-25.449-25.449v-32.119c0-14.055 11.394-25.449 25.449-25.449h47.671c14.055 0 25.449 11.394 25.449 25.449v32.119c0 14.056-11.394 25.449-25.449 25.449z" style="" fill="#5972a4" data-original="#5972a4"></path><path d="M407.239 64.735H228.062c-55.394 27.287-54.215 111.026 1.318 127.778h177.858c20.249 0 36.663-16.415 36.663-36.663v-54.451c.001-20.249-16.413-36.664-36.662-36.664z" style="" fill="#72d98b" data-original="#72d98b"></path><path d="M104.761 64.735c-20.249 0-36.663 16.415-36.663 36.663v54.451c0 20.249 16.415 36.663 36.663 36.663h124.62c-19.501-18.345-28.777-85.285-1.318-127.778H104.761z" style="" fill="#00c67f" data-original="#00c67f" class=""></path><path d="M370.783 447.264h47.671c14.055 0 25.449-11.394 25.449-25.449V266.562c0-14.055-11.394-25.449-25.449-25.449h-47.671c-14.055 0-25.449 11.394-25.449 25.449v155.254c0 14.055 11.394 25.448 25.449 25.448z" style="" fill="#ff8997" data-original="#ff8997"></path><path d="M279.836 324.129h-47.671c-14.055 0-25.449-11.394-25.449-25.449v-32.119c0-14.055 11.394-25.449 25.449-25.449h47.671c14.055 0 25.449 11.394 25.449 25.449v32.119c-.001 14.056-11.394 25.449-25.449 25.449zM141.217 447.264H93.546c-14.055 0-25.449-11.394-25.449-25.449v-32.119c0-14.055 11.394-25.449 25.449-25.449h47.671c14.055 0 25.449 11.394 25.449 25.449v32.119c0 14.056-11.394 25.449-25.449 25.449zM279.836 447.264h-47.671c-14.055 0-25.449-11.394-25.449-25.449v-32.119c0-14.055 11.394-25.449 25.449-25.449h47.671c14.055 0 25.449 11.394 25.449 25.449v32.119c-.001 14.056-11.394 25.449-25.449 25.449z" style="" fill="#5972a4" data-original="#5972a4"></path><ellipse cx="176.443" cy="145.369" rx="29.355" ry="23.377" style="" fill="#ffffff" data-original="#ffffff"></ellipse><ellipse cx="335.557" cy="145.369" rx="29.355" ry="23.377" style="" fill="#ffffff" data-original="#ffffff"></ellipse><path d="M20.98 420.245V91.755c0-42.083 32.858-76.823 74.873-79.21C140.287 10.02 198.934 7.5 256 7.5s115.713 2.52 160.147 5.045c42.015 2.387 74.873 37.127 74.873 79.21v328.489c0 42.083-32.858 76.823-74.873 79.21C371.713 501.98 313.066 504.5 256 504.5s-115.713-2.52-160.147-5.045c-42.015-2.387-74.873-37.127-74.873-79.21z" style="stroke-width:15;stroke-linecap:round;stroke-linejoin:round;stroke-miterlimit:10;" fill="none" stroke="#000000" stroke-width="15" stroke-linecap="round" stroke-linejoin="round" stroke-miterlimit="10" data-original="#000000" class=""></path><path d="M141.217 324.129H93.546c-14.055 0-25.449-11.394-25.449-25.449v-32.119c0-14.055 11.394-25.449 25.449-25.449h47.671c14.055 0 25.449 11.394 25.449 25.449v32.119c0 14.056-11.394 25.449-25.449 25.449zM181.311 64.735h225.928c20.249 0 36.663 16.415 36.663 36.663v54.452c0 20.249-16.415 36.663-36.663 36.663H104.761c-20.249 0-36.663-16.415-36.663-36.663v-54.452c0-20.249 16.415-36.663 36.663-36.663h40.978M443.902 366.318v-99.756c0-14.055-11.394-25.449-25.449-25.449h-47.671c-14.055 0-25.449 11.394-25.449 25.449v155.254c0 14.055 11.394 25.449 25.449 25.449h47.671c14.055 0 25.449-11.394 25.449-25.449v-19.504M279.836 324.129h-47.671c-14.055 0-25.449-11.394-25.449-25.449v-32.119c0-14.055 11.394-25.449 25.449-25.449h47.671c14.055 0 25.449 11.394 25.449 25.449v32.119c-.001 14.056-11.394 25.449-25.449 25.449zM141.217 447.264H93.546c-14.055 0-25.449-11.394-25.449-25.449v-32.119c0-14.055 11.394-25.449 25.449-25.449h47.671c14.055 0 25.449 11.394 25.449 25.449v32.119c0 14.056-11.394 25.449-25.449 25.449zM279.836 447.264h-47.671c-14.055 0-25.449-11.394-25.449-25.449v-32.119c0-14.055 11.394-25.449 25.449-25.449h47.671c14.055 0 25.449 11.394 25.449 25.449v32.119c-.001 14.056-11.394 25.449-25.449 25.449zM193.551 110.866v12M318.449 110.866v12" style="stroke-width:15;stroke-linecap:round;stroke-linejoin:round;stroke-miterlimit:10;" fill="none" stroke="#000000" stroke-width="15" stroke-linecap="round" stroke-linejoin="round" stroke-miterlimit="10" data-original="#000000" class=""></path><path d="M239.536 122.508c4.003 4.594 9.893 7.501 16.464 7.501 6.572 0 12.461-2.907 16.464-7.501M407.013 328.428h-24.79M407.013 359.95h-24.79" style="stroke-width:15;stroke-linecap:round;stroke-linejoin:round;stroke-miterlimit:10;" fill="none" stroke="#000000" stroke-width="15" stroke-linecap="round" stroke-linejoin="round" stroke-miterlimit="10" data-original="#000000" class=""></path></g></svg>